<svg width="800" height="600" viewBox="0 0 800 600" fill="none" xmlns="http://www.w3.org/2000/svg">
  <rect width="800" height="600" rx="36" fill="#F5F1E8"/>
  <rect x="48" y="48" width="704" height="504" rx="32" fill="#FFF9F0" stroke="#D8C9AA" stroke-width="4"/>
  <rect x="112" y="104" width="576" height="222" rx="24" fill="#1F1F1B"/>
  <rect x="144" y="138" width="512" height="158" rx="18" fill="#262622"/>
  <path d="M174 255L254 212L330 225L412 166L498 188L576 142L626 164" stroke="#C6A96B" stroke-width="8" stroke-linecap="round" stroke-linejoin="round"/>
  <circle cx="174" cy="255" r="10" fill="#7A2E2E"/>
  <circle cx="254" cy="212" r="10" fill="#7A2E2E"/>
  <circle cx="330" cy="225" r="10" fill="#7A2E2E"/>
  <circle cx="412" cy="166" r="10" fill="#7A2E2E"/>
  <circle cx="498" cy="188" r="10" fill="#7A2E2E"/>
  <circle cx="576" cy="142" r="10" fill="#7A2E2E"/>
  <circle cx="626" cy="164" r="10" fill="#7A2E2E"/>
  <rect x="136" y="360" width="120" height="32" rx="12" fill="#EFE1C3"/>
  <rect x="284" y="360" width="168" height="32" rx="12" fill="#F2E7D1"/>
  <rect x="480" y="360" width="184" height="32" rx="12" fill="#EFE1C3"/>
  <g fill="#7A2E2E">
    <rect x="146" y="430" width="62" height="18" rx="9"/>
    <rect x="224" y="430" width="62" height="18" rx="9"/>
    <rect x="302" y="430" width="62" height="18" rx="9"/>
    <rect x="380" y="430" width="62" height="18" rx="9"/>
    <rect x="458" y="430" width="62" height="18" rx="9"/>
    <rect x="536" y="430" width="62" height="18" rx="9"/>
    <rect x="614" y="430" width="62" height="18" rx="9"/>
  </g>
  <g fill="#C6A96B">
    <rect x="128" y="470" width="78" height="24" rx="12"/>
    <rect x="224" y="470" width="78" height="24" rx="12"/>
    <rect x="320" y="470" width="78" height="24" rx="12"/>
    <rect x="416" y="470" width="78" height="24" rx="12"/>
    <rect x="512" y="470" width="78" height="24" rx="12"/>
    <rect x="608" y="470" width="78" height="24" rx="12"/>
  </g>
</svg>
