<?xml version="1.0" encoding="UTF-8" standalone="no"?>
<svg viewBox="0 0 673.22833 581.10236" xmlns="http://www.w3.org/2000/svg">
<g transform="translate(-50.74867,-229.80286)">
<path d="m593.30756,498.27689h-.23172l-2.78137-5.21501h-.1159l-83.78883-152.16425h-237.92311l-.81125,1.62249-85.64304,155.75677h.23181-.11591-.1159c0,0 0,.1159.1159.23181l-.1159.1159h.34771c5.33092,5.91036 83.44112,88.1926 172.32906,0h.34771l-.1159-.23181c.1159,0 .1159,0 .1159-.1159h-.1159l-1.73831-3.3608-1.04306-1.85421h-.1159l-80.54385-146.48562 .11591-.23172h110.55951c0,.69534-.81125,11.47318-14.60226,182.99098-.92706,23.75759-11.00955,31.52225-18.89011,33.9559h-87.84497c-7.41704,0-13.32739,5.56273-13.32739,12.40032s5.91035,12.28433 13.32739,12.28433h256.00197c7.30113,0 13.32748-5.44682 13.32748-12.28433s-6.02635-12.40032-13.32748-12.40032h-90.0468c-7.99647-2.31774-18.19487-10.19831-19.12193-33.9559-13.6751-171.5178-14.48635-182.29564-14.60226-182.99098h110.21189l-80.77566,146.71734-2.78136,5.21501h.11581-.23172l.11591.1159-.11591.23181h.34763c89.35156,88.1926 167.69347,5.91036 173.02448,0h.34763l-.11591-.1159c.11591-.11591.11591-.23181.11591-.23181zm-247.19427-5.21501h-155.17733l77.53067-141.0387 77.64666,141.0387zm82.39806,0 77.76248-141.27051 77.87839,141.27051h-155.64087" fill="#000000"/>
<path d="m471.50669,778.61589c0,0-67.9118-78.80553-147.5285-56.78634-36.62136,14.94988-58.17702,25.4959-69.99782,27.81374-11.70499,2.08602-39.28691,4.28795-56.091-7.06932 30.82682,28.16136 59.4518,29.89976 80.54384,25.95943 21.09205-4.05614 42.18418-21.20795 47.63101-25.61171 5.56272-4.28795 25.6118-28.16145 64.551-12.74795 28.16136,13.21148 63.97147,52.03477 69.99782,58.98818l10.89365-10.54603" fill="#000000"/>
<path d="m308.7965,718.23694c0,0-43.80658,9.38715-60.26305,14.13863-16.45637,4.86748-72.08384,5.79454-104.53315-43.57476 25.72771,21.09204 57.24987,21.09204 69.88191,20.62851 12.74795-.34772 45.54498,4.51976 61.65373,7.53285-.34762-3.01309-16.57228-6.6057-21.43976-9.15534s-18.54239-6.6057-35.11477-42.76353c-5.56273-11.00964-6.48988-17.15181-10.31421-20.5126 6.95341,1.04296 20.51261,15.64512 24.68466,20.04898s29.43613,33.49237 43.80658,40.90931c14.37044,7.53294 21.43976,11.12555 31.63806,12.74795" fill="#000000"/>
<path d="m227.90494,700.6216c0,0-22.0191-6.02625-38.35966-8.34409-16.45647-2.20193-73.82225-16.68819-96.18907-84.02055 22.59863,26.30715 27.69774,27.92955 40.90931,34.53534 13.32739,6.60578 53.42545,29.43613 67.33237,41.95236l4.05614,2.31775c0,0 1.39068-1.73831-4.75149-6.95341-5.91044-5.33092-26.19124-23.75751-29.32032-65.01453-2.54955-18.19478-6.60579-34.76715-7.88056-36.96908 9.15534,5.21511 19.93317,26.30715 22.1351,32.21759 2.20193,6.02626 17.0359,47.63101 19.00602,52.6143 1.85421,4.86739 13.90682,31.29035 23.06216,37.66432" fill="#000000"/>
<path d="m166.59893,645.68957c0,0-27.58193-16.10875-42.76362-27.92965-15.18159-11.9367-57.8293-42.99533-53.42545-98.15918 6.60579,17.84715 17.38353,34.07181 29.08852,43.92249 11.70489,9.96658 32.91284,41.25703 38.01204,48.55806 4.98329,7.30113 8.45999,9.27125 8.45999,9.27125s1.6225-3.59262-4.05614-9.85068c-4.17204-6.7216-11.70498-22.48273-7.64875-56.90216 5.0992-31.98578 6.95341-39.63453 6.02626-44.61783 4.40386,11.24137 10.1984,35.46249 12.40033,73.35863 1.27477,21.43976 3.70842,38.01204 6.48988,45.31316 2.89717,7.18523 7.41694,17.03591 7.41694,17.03591" fill="#000000"/>
<path d="m120.70632,568.85415c0,0-9.50305-14.83398-18.07896-24.56875-8.57581-9.50297-46.47203-52.38248-26.88658-124.69814 0,16.80418 2.31784,26.30715 4.05623,32.3335 1.97012,5.91035 20.74433,46.24022 22.59864,57.13396s4.98329,31.40635 9.38715,33.72409c1.6224-1.04297-.23181-4.63558-.81125-7.99638-.69534-3.24498-6.14226-31.29044 10.31421-61.76963 14.94988-26.77068 17.73124-29.32032 19.93317-38.59157 .69534,17.49953-4.98329,52.15077-9.50305,66.75293-4.40377,14.48635-16.34057,48.21044-11.00956,67.67999" fill="#000000"/>
<path d="m104.82929,480.89337c0,0-5.67863-23.06226-12.63204-41.48884-6.95341-18.5424-20.2808-61.53783 14.25454-106.38737-7.30113,17.84705-4.40386,29.43613-4.40386,31.40625s4.28795,41.60465 4.40386,51.45543c.1159,12.63204-2.20193,34.41943-2.20193,34.41943s.81124,2.66545 2.54964,0c1.04297-1.6225 3.3608-29.78386 20.2808-46.58795 15.64522-15.64522 28.39317-27.46602 31.86988-33.9559 0,11.47308-6.60579,28.39317-12.05261,37.54851-5.33101,9.27125-27.46602,39.63454-32.56522,49.83284-4.98329,10.3143-9.50306,22.48282-9.50306,23.7576" fill="#000000"/>
<path d="m114.79588,402.31964c0,0 2.54964-6.37398.23181-32.10169-2.43374-25.72771-3.4767-60.84248 36.38964-84.48418-9.96659,16.68829-11.58908,19.58556-14.60226,33.26057-3.01317,13.55919-6.37397,35.34658-11.82079,47.631-2.20193,6.02635-3.59261,10.77783-2.54965,11.35727 .92715.57943 1.39068-.46353 2.08612-2.54955 .92706-2.08603 9.03943-20.51261 25.49581-32.2176s31.29044-23.40988 36.85316-34.99886c-2.43364,21.43966-10.54602,29.08851-18.6583,39.86625-8.80771,11.70499-40.44578,36.15783-45.77679,44.1543-5.44682,7.88056-7.64875,10.08249-7.64875,10.08249" fill="#000000"/>
<path d="m144.57973,334.06012c0,0 5.21511-27.2342 15.64522-43.34305s32.10169-30.36329 54.93204-37.43261c-7.99638,6.72169-12.86376,12.74795-15.64513,17.61534-2.78136,4.75158-20.04908,31.75398-27.92964,40.32988-8.11237,8.5759-21.09204,16.34056-27.00249,22.83044" fill="#000000"/>
<path d="m309.26012,780.70192c0,0 65.9416-80.54385 146.02191-60.49477 37.08498,14.02273 58.75646,23.98932 70.69316,25.84353 11.82089,1.97011 39.28691,3.4767 55.85928-8.46-30.13157,28.97261-58.75645,31.52225-79.84859,28.04555-21.20795-3.4768-42.64762-20.04908-48.21044-24.33703s-26.42296-27.46602-64.78272-11.12546c-28.04545,13.90682-62.8126,53.54135-68.60714,60.72658l-11.12546-10.1984" fill="#000000"/>
<path d="m470.46372,716.26682c0,0 44.03839,8.11238 60.49477,12.51624 16.57237,4.40376 72.31565,3.94023 103.60609-46.24032-25.26409,21.78738-56.90225,22.59863-69.53429,22.48272s-45.42907,5.56273-61.30601,9.03944c.23181-3.12899 16.34056-7.06932 21.20795-9.73478 4.75148-2.66546 18.31068-7.06932 33.9559-43.69067 5.44682-11.12546 6.14216-17.38362 9.96658-20.74442-6.95341,1.27477-20.16498,16.22465-24.22112,20.62851-4.17205,4.63558-28.7408,34.30362-42.87943,42.06827-14.13863,7.99638-21.20795,11.58899-31.29044,13.67501" fill="#000000"/>
<path d="m551.00756,696.56546c0,0 21.67148-6.7216 38.01204-9.27124 16.45647-2.66546 73.47462-18.65831 94.10304-86.5702-21.90329,26.88659-26.88658,28.62498-39.98215,35.6943-13.09567,6.83751-52.7302,30.5951-66.40521,43.45896l-4.05624,2.43364c0,0-1.15887-1.62249 4.63567-6.95341 5.91045-5.44682 25.72771-24.45284 27.92955-65.82577 2.08612-18.19478 5.79454-34.76715 7.06932-37.2008-9.03944,5.56273-19.35365,27.0024-21.43967,32.91285-2.08603,6.02635-15.99294,47.97862-17.73125,52.96192-1.8543,4.98329-13.21157,31.63815-22.1351,38.35975" fill="#000000"/>
<path d="m610.92289,640.12684c0,0 27.1184-16.92 42.06828-29.20442 14.83397-12.16852 56.78634-44.27011 51.10771-99.31815-6.25807,17.96306-16.57238,34.41953-28.04555,44.61783s-31.86988,42.06827-36.73727,49.48522c-4.98329,7.41703-8.34409,9.50305-8.34409,9.50305s-1.7383-3.59261 3.82442-10.08249c3.94024-6.60569 11.24137-22.71454 6.25807-56.90216-5.79454-31.98578-7.76465-39.51872-7.06931-44.3861-4.05614,11.24136-9.27125,35.46248-10.54602,73.47462-.69535,21.55557-2.89727,38.12794-5.56273,45.42898-2.66555,7.41703-6.95351,17.38362-6.95351,17.38362" fill="#000000"/>
<path d="m654.96129,562.01664c0,0 9.15533-15.06578 17.49952-24.91647 8.34409-9.73477 45.31317-53.65725 23.98931-125.39347 .34763,16.80418-1.62249,26.42305-3.36089,32.4494-1.73831,5.91035-19.46955,46.70385-21.09204,57.59749-1.73831,11.00965-4.40386,31.52226-8.80762,33.9559-1.50659-.92706.34762-4.63557.81115-7.88056 .57953-3.3608 5.33101-31.63807-11.8208-61.53782-15.52931-26.30705-18.42658-28.97261-20.74442-38.12795-.34762,17.49944 6.25816,52.03486 10.89374,66.40521 4.86739,14.48635 17.61534,47.86282 12.63205,67.44827" fill="#000000"/>
<path d="m668.75229,473.82405c0,0 5.21502-23.29397 11.7049-41.95237s18.7743-61.88554-16.68819-105.92384c7.64875,17.61534 5.0992,29.32023 5.21501,31.29035 0,1.97021-3.4767,41.72056-3.24489,51.57133 .1159,12.63204 3.01317,34.30352 3.01317,34.30352s-.81124,2.66546-2.54964.11591c-1.15887-1.7384-4.05614-29.78385-21.32386-46.12442-16.10875-15.18159-29.08842-26.65477-32.68103-33.14465 .23172,11.58908 7.30104,28.16136 12.86377,37.3167 5.56282,9.03943 28.39317,38.93919 33.72418,49.02169 5.21501,10.08249 9.96658,22.1351 9.96658,23.52578" fill="#000000"/>
<path d="m657.04731,395.36623c0,0-2.66546-6.25816-.92706-31.98578 1.73831-25.84362 1.97012-60.95839-38.35976-83.67293 10.31421,16.57228 11.93671,19.46955 15.2975,33.02875 3.3608,13.44329 7.30113,35.11486 12.97977,47.28328 2.31783,6.02635 3.94023,10.66193 2.89727,11.24146-1.04306.69534-1.50659-.46362-2.31784-2.43374-.81124-2.08602-9.50305-20.2808-26.07533-31.52216-16.8041-11.35727-31.86988-22.71454-37.66442-34.07181 2.78136,21.32386 11.12546,28.7408 19.46964,39.28682 9.03944,11.47318 41.25694,35.11486 46.81967,42.87952 5.67863,7.88047 7.88056,9.96659 7.88056,9.96659" fill="#000000"/>
<path d="m625.64105,327.91796c0,0-5.79454-27.00249-16.68827-42.87953-10.66193-15.87694-32.68113-29.55204-55.62738-36.04192 8.11228,6.48988 13.09557,12.40033 15.99284,17.15181s20.86033,31.29044 28.97261,39.63454c8.22828,8.46 21.43976,15.76112 27.3502,22.1351" fill="#000000"/>
</g>
</svg>
