<svg width="800" height="600" viewBox="0 0 800 600" fill="none" xmlns="http://www.w3.org/2000/svg">
  <rect width="800" height="600" rx="36" fill="#F5F1E8"/>
  <rect x="48" y="48" width="704" height="504" rx="32" fill="#FFF9F0" stroke="#D8C9AA" stroke-width="4"/>
  <rect x="96" y="96" width="608" height="292" rx="28" fill="#1F1F1B"/>
  <g stroke="#3A3A33" stroke-width="2">
    <path d="M176 96V388"/>
    <path d="M256 96V388"/>
    <path d="M336 96V388"/>
    <path d="M416 96V388"/>
    <path d="M496 96V388"/>
    <path d="M576 96V388"/>
    <path d="M656 96V388"/>
    <path d="M96 148H704"/>
    <path d="M96 200H704"/>
    <path d="M96 252H704"/>
    <path d="M96 304H704"/>
    <path d="M96 356H704"/>
  </g>
  <rect x="126" y="128" width="548" height="228" rx="22" fill="url(#wall)"/>
  <path d="M188 320C254 256 302 222 370 208C440 194 500 208 612 152" stroke="#FFF9F0" stroke-width="8" stroke-linecap="round"/>
  <circle cx="370" cy="208" r="18" fill="#C6A96B"/>
  <rect x="258" y="420" width="180" height="82" rx="20" fill="#1F1F1B"/>
  <rect x="284" y="440" width="74" height="42" rx="12" fill="#7A2E2E"/>
  <rect x="376" y="440" width="36" height="42" rx="8" fill="#C6A96B"/>
  <path d="M450 436L560 404L584 438L474 470L450 436Z" fill="#2B2B26"/>
  <rect x="532" y="430" width="82" height="20" rx="10" transform="rotate(-18 532 430)" fill="#1F1F1B"/>
  <path d="M146 210H214" stroke="#FFF9F0" stroke-width="3" stroke-dasharray="6 6"/>
  <path d="M584 210H652" stroke="#FFF9F0" stroke-width="3" stroke-dasharray="6 6"/>
  <path d="M400 128V170" stroke="#FFF9F0" stroke-width="3" stroke-dasharray="6 6"/>
  <path d="M400 314V356" stroke="#FFF9F0" stroke-width="3" stroke-dasharray="6 6"/>
  <defs>
    <linearGradient id="wall" x1="168" y1="134" x2="636" y2="350" gradientUnits="userSpaceOnUse">
      <stop stop-color="#7A2E2E"/>
      <stop offset="0.5" stop-color="#C6A96B"/>
      <stop offset="1" stop-color="#566246"/>
    </linearGradient>
  </defs>
</svg>
